<svg width="24" height="24" viewBox="0 0 24 24" fill="none" xmlns="http://www.w3.org/2000/svg">
<circle cx="12" cy="12" r="10" stroke="black" stroke-linejoin="round"/>
<path d="M2.5 15H7.5C8.32843 15 9 15.6716 9 16.5V16.5C9 17.3284 9.67157 18 10.5 18H12C13.1046 18 14 18.8954 14 20V21.5" stroke="black" stroke-linejoin="round"/>
<path d="M13 2L10.1831 6.02411C9.76221 6.62541 9.70448 7.40897 10.0327 8.06546L11.0163 10.0327C11.5438 11.0876 12.865 11.4594 13.8652 10.8343L14.2357 10.6027C15.1986 10.0008 16.4688 10.3205 17.0322 11.3064L17.4242 11.9923C17.7802 12.6154 18.4429 13 19.1606 13H22" stroke="black" stroke-linejoin="round"/>
</svg>
