<svg width="30" height="22" viewBox="0 0 30 22" fill="none" xmlns="http://www.w3.org/2000/svg">
<path fill-rule="evenodd" clip-rule="evenodd" d="M14 6.5C14 3.73858 16.2386 1.5 19 1.5C21.7614 1.5 24 3.73858 24 6.5C24 9.26142 21.7614 11.5 19 11.5C16.2386 11.5 14 9.26142 14 6.5ZM21.7559 11.831C23.6831 10.8327 25 8.82016 25 6.5C25 3.18629 22.3137 0.5 19 0.5C15.6863 0.5 13 3.18629 13 6.5C13 8.82016 14.3169 10.8327 16.2441 11.831C14.7328 12.2021 13.3532 12.8713 12.1908 13.7673C11.199 13.433 10.1236 13.25 9 13.25C4.41043 13.25 0.623241 16.3037 0.0696304 20.25C0.0236738 20.5776 0 20.9113 0 21.25H1H9.92372C10.2542 21.4109 10.6247 21.5 11 21.5H27C28.3358 21.5 29.6096 20.3709 29.2422 18.8983C28.3815 15.4491 25.4658 12.742 21.7559 11.831ZM17.961 20.5H27C27.8733 20.5 28.4393 19.8112 28.2719 19.1404C27.3316 15.372 23.5659 12.5 19 12.5C16.8448 12.5 14.868 13.1399 13.2823 14.2119C15.779 15.4147 17.5638 17.6366 17.9304 20.25C17.942 20.3329 17.9522 20.4163 17.961 20.5ZM12.3832 14.9021C14.808 15.8941 16.5302 17.9156 16.9175 20.25H10.1743C9.80686 19.9896 9.623 19.5614 9.72807 19.1404C10.1362 17.505 11.0764 16.0384 12.3832 14.9021ZM11.2986 14.541C10.0675 15.7415 9.17326 17.2334 8.75782 18.8983C8.63292 19.3988 8.69764 19.8597 8.88997 20.25H1.08247C1.63265 16.9344 4.87554 14.25 9 14.25C9.80421 14.25 10.5749 14.3521 11.2986 14.541ZM9 9.75C10.6569 9.75 12 8.40685 12 6.75C12 5.09315 10.6569 3.75 9 3.75C7.34315 3.75 6 5.09315 6 6.75C6 8.40685 7.34315 9.75 9 9.75ZM9 10.75C11.2091 10.75 13 8.95914 13 6.75C13 4.54086 11.2091 2.75 9 2.75C6.79086 2.75 5 4.54086 5 6.75C5 8.95914 6.79086 10.75 9 10.75Z" fill="black"/>
</svg>
