<?xml version="1.0" encoding="UTF-8"?>
<!DOCTYPE svg PUBLIC "-//W3C//DTD SVG 1.1//EN" "http://www.w3.org/Graphics/SVG/1.1/DTD/svg11.dtd">
<!-- Creator: CorelDRAW -->
<svg xmlns="http://www.w3.org/2000/svg" xml:space="preserve" width="2.66666in" height="2.66666in" style="shape-rendering:geometricPrecision; text-rendering:geometricPrecision; image-rendering:optimizeQuality; fill-rule:evenodd; clip-rule:evenodd"
viewBox="0 0 2.66666 2.66666"
 xmlns:xlink="http://www.w3.org/1999/xlink">
 <defs>
  <style type="text/css">
   <![CDATA[
    .fil1 {fill:#FEFEFE}
    .fil0 {fill:#1A1A1A}
   ]]>
  </style>
 </defs>
 <g id="Layer_x0020_1">
  <metadata id="CorelCorpID_0Corel-Layer"/>
  <circle class="fil0" cx="1.33333" cy="1.33333" r="1.33333"/>
  <path class="fil1" d="M1.11009 2.16833c-0.0300827,0 -0.0569055,-0.0125787 -0.0741457,-0.0321142 -0.0172598,0.0196732 -0.0425669,0.0321142 -0.0707323,0.0321142 -0.0518898,0 -0.0941024,-0.0422087 -0.0941024,-0.0940906l0 -0.953602 -0.363083 -0.363071c-0.0428228,-0.0428228 -0.0312402,-0.101429 0.0013937,-0.134835 0.0301772,-0.0308858 0.0841417,-0.043626 0.131323,0.00140551l0.260874 0.249 0.280795 0.0023189 0.000106299 0 0.000185039 3.93701e-006c0.091815,0.000114173 0.166472,0.0845276 0.166472,0.188276l0 0.514303c3.93701e-006,0.057878 -0.0422362,0.104961 -0.0941535,0.104961 -0.0187126,0 -0.0361693,-0.00611811 -0.0508425,-0.0166496l0 0.418547c0,0.0460079 -0.0422087,0.0834331 -0.0940906,0.0834331z"/>
  <path class="fil1" d="M1.03546 0.819303c-0.0884921,0 -0.160488,-0.0719921 -0.160488,-0.160488 0,-0.0884921 0.0719921,-0.160488 0.160488,-0.160488 0.0884961,0 0.160488,0.0719921 0.160488,0.160488 -3.93701e-006,0.0884961 -0.0719961,0.160488 -0.160488,0.160488z"/>
  <path class="fil1" d="M2.10094 1.94949l-0.0262087 0 0 -0.522059 0.0262087 0c0.0471417,0 0.0854961,0.0383543 0.0854961,0.0854961l0 0.351071c0,0.0471417 -0.0383543,0.0854921 -0.0854961,0.0854921zm-0.0695276 0l-0.460961 0 0 -0.522059 0.460961 0 0 0.522059zm-0.504276 0l-0.0262165 0c-0.0471417,0 -0.0854921,-0.0383504 -0.0854921,-0.0854882l0 -0.351075c0,-0.0471417 0.0383543,-0.0854961 0.0854921,-0.0854961l0.0262165 0 0 0.522059z"/>
  <path class="fil1" d="M1.93977 1.47075l-0.277669 0c-0.0119646,0 -0.0216575,-0.00969685 -0.0216575,-0.0216614l0 -0.0590394c0,-0.0445 0.0361969,-0.0807047 0.0806969,-0.0807047l0.159591 0c0.0444961,0 0.0806969,0.0362047 0.0806969,0.0807047l0 0.0590433c0,0.0119606 -0.00969685,0.0216575 -0.0216575,0.0216575zm-0.256012 -0.0433189l0.234354 0 0 -0.0373819c0,-0.0206142 -0.0167717,-0.0373898 -0.0373819,-0.0373898l-0.159591 3.93701e-006c-0.0206142,0 -0.0373819,0.0167717 -0.0373819,0.0373858l0 0.0373819z"/>
 </g>
</svg>
